<svg xmlns="http://www.w3.org/2000/svg" width="51" height="51" viewBox="0 0 51 51" fill="none">
<circle cx="25.5" cy="25.5" r="25.5" fill="#D8D8D8"/>
<g clip-path="url(#clip0_402_510)">
<path d="M30 4.375C30 5.4125 29.1625 6.25 28.125 6.25H1.875C0.8375 6.25 0 5.4125 0 4.375C0 3.3375 0.8375 2.5 1.875 2.5H28.125C29.1625 2.5 30 3.3375 30 4.375ZM8.125 25H1.875C0.8375 25 0 25.8375 0 26.875C0 27.9125 0.8375 28.75 1.875 28.75H8.125C9.1625 28.75 10 27.9125 10 26.875C10 25.8375 9.1625 25 8.125 25ZM18.125 13.75H1.875C0.8375 13.75 0 14.5875 0 15.625C0 16.6625 0.8375 17.5 1.875 17.5H18.125C19.1625 17.5 20 16.6625 20 15.625C20 14.5875 19.1625 13.75 18.125 13.75Z" fill="#222222"/>
</g>
<defs>
<clipPath id="clip0_402_510">
<rect width="30" height="30" fill="white"/>
</clipPath>
</defs>
</svg>